<svg width="20" height="20" viewBox="0 0 20 20" fill="none" xmlns="http://www.w3.org/2000/svg">
<path d="M14.0908 1.66681C12.462 1.66932 10.9362 2.46374 9.99992 3.79645C9.0636 2.46374 7.5378 1.66932 5.90901 1.66681C3.24536 1.66681 0.909012 4.14506 0.909012 6.96984C0.909012 9.72286 2.46352 12.5583 5.40475 15.1699C6.7675 16.3775 8.26238 17.4273 9.86083 18.2996C9.94813 18.3446 10.0517 18.3446 10.139 18.2996C11.7369 17.4273 13.2313 16.3774 14.5936 15.1699C17.5363 12.5583 19.0908 9.72286 19.0908 6.96984C19.0908 4.14506 16.7545 1.66681 14.0908 1.66681V1.66681ZM9.99992 17.6858C8.88694 17.0716 1.51507 12.7807 1.51507 6.96984C1.51507 4.46777 3.56807 2.27287 5.90901 2.27287C7.49489 2.27568 8.95677 3.13121 9.73595 4.5126C9.79425 4.60168 9.89353 4.65524 9.99992 4.65524C10.1063 4.65524 10.2056 4.60168 10.2639 4.5126C11.0431 3.13121 12.505 2.27568 14.0908 2.27287C16.4318 2.27287 18.4848 4.46777 18.4848 6.96984C18.4848 12.7807 11.1129 17.0716 9.99992 17.6858Z" fill="#141211" stroke="#141211" stroke-width="0.3"/>
</svg>
